<?xml version="1.0" encoding="UTF-8" standalone="no"?>
<svg
   width="32"
   height="32"
   viewBox="0 0 32 32"
   fill="none"
   version="1.1"
   id="svg10"
   sodipodi:docname="logo-icon.svg"
   inkscape:version="1.3.2 (091e20e, 2023-11-25)"
   xml:space="preserve"
   xmlns:inkscape="http://www.inkscape.org/namespaces/inkscape"
   xmlns:sodipodi="http://sodipodi.sourceforge.net/DTD/sodipodi-0.dtd"
   xmlns="http://www.w3.org/2000/svg"><sodipodi:namedview
     id="namedview10"
     pagecolor="#505050"
     bordercolor="#eeeeee"
     borderopacity="1"
     inkscape:showpageshadow="0"
     inkscape:pageopacity="0"
     inkscape:pagecheckerboard="0"
     inkscape:deskcolor="#505050"
     showgrid="false"
     inkscape:zoom="25.4375"
     inkscape:cx="15.980344"
     inkscape:cy="16.589681"
     inkscape:window-width="1920"
     inkscape:window-height="1027"
     inkscape:window-x="0"
     inkscape:window-y="25"
     inkscape:window-maximized="1"
     inkscape:current-layer="svg10" /><path
     d="M0 8.42105C0 3.77023 3.77023 0 8.42105 0H23.5789C28.2298 0 32 3.77023 32 8.42105V23.5789C32 28.2298 28.2298 32 23.5789 32H8.42105C3.77023 32 0 28.2298 0 23.5789V8.42105Z"
     fill="#3C50E0"
     id="path1" /><defs
     id="defs10"><filter
       id="filter0_d_521_14078"
       x="7.42139"
       y="6.23706"
       width="5.36865"
       height="20.5264"
       filterUnits="userSpaceOnUse"
       color-interpolation-filters="sRGB"><feFlood
         flood-opacity="0"
         result="BackgroundImageFix"
         id="feFlood4" /><feColorMatrix
         in="SourceAlpha"
         type="matrix"
         values="0 0 0 0 0 0 0 0 0 0 0 0 0 0 0 0 0 0 127 0"
         result="hardAlpha"
         id="feColorMatrix4" /><feOffset
         dy="0.5"
         id="feOffset4" /><feGaussianBlur
         stdDeviation="0.5"
         id="feGaussianBlur4" /><feComposite
         in2="hardAlpha"
         operator="out"
         id="feComposite4" /><feColorMatrix
         type="matrix"
         values="0 0 0 0 0 0 0 0 0 0 0 0 0 0 0 0 0 0 0.12 0"
         id="feColorMatrix5" /><feBlend
         mode="normal"
         in2="BackgroundImageFix"
         result="effect1_dropShadow_521_14078"
         id="feBlend5" /><feBlend
         mode="normal"
         in="SourceGraphic"
         in2="effect1_dropShadow_521_14078"
         result="shape"
         id="feBlend6" /></filter><filter
       id="filter1_d_521_14078"
       x="13.7368"
       y="12.9734"
       width="5.36865"
       height="13.7896"
       filterUnits="userSpaceOnUse"
       color-interpolation-filters="sRGB"><feFlood
         flood-opacity="0"
         result="BackgroundImageFix"
         id="feFlood6" /><feColorMatrix
         in="SourceAlpha"
         type="matrix"
         values="0 0 0 0 0 0 0 0 0 0 0 0 0 0 0 0 0 0 127 0"
         result="hardAlpha"
         id="feColorMatrix6" /><feOffset
         dy="0.5"
         id="feOffset6" /><feGaussianBlur
         stdDeviation="0.5"
         id="feGaussianBlur6" /><feComposite
         in2="hardAlpha"
         operator="out"
         id="feComposite6" /><feColorMatrix
         type="matrix"
         values="0 0 0 0 0 0 0 0 0 0 0 0 0 0 0 0 0 0 0.12 0"
         id="feColorMatrix7" /><feBlend
         mode="normal"
         in2="BackgroundImageFix"
         result="effect1_dropShadow_521_14078"
         id="feBlend7" /><feBlend
         mode="normal"
         in="SourceGraphic"
         in2="effect1_dropShadow_521_14078"
         result="shape"
         id="feBlend8" /></filter><filter
       id="filter2_d_521_14078"
       x="20.0522"
       y="8.7627"
       width="5.36865"
       height="18"
       filterUnits="userSpaceOnUse"
       color-interpolation-filters="sRGB"><feFlood
         flood-opacity="0"
         result="BackgroundImageFix"
         id="feFlood8" /><feColorMatrix
         in="SourceAlpha"
         type="matrix"
         values="0 0 0 0 0 0 0 0 0 0 0 0 0 0 0 0 0 0 127 0"
         result="hardAlpha"
         id="feColorMatrix8" /><feOffset
         dy="0.5"
         id="feOffset8" /><feGaussianBlur
         stdDeviation="0.5"
         id="feGaussianBlur8" /><feComposite
         in2="hardAlpha"
         operator="out"
         id="feComposite8" /><feColorMatrix
         type="matrix"
         values="0 0 0 0 0 0 0 0 0 0 0 0 0 0 0 0 0 0 0.12 0"
         id="feColorMatrix9" /><feBlend
         mode="normal"
         in2="BackgroundImageFix"
         result="effect1_dropShadow_521_14078"
         id="feBlend9" /><feBlend
         mode="normal"
         in="SourceGraphic"
         in2="effect1_dropShadow_521_14078"
         result="shape"
         id="feBlend10" /></filter></defs><g
     style="fill:#ffffff;fill-opacity:1"
     id="g10"
     transform="translate(4,4.0003)"><path
       d="M 11.645,20.91 11.638,20.907 11.616,20.895 A 15.247,15.247 0 0 1 11.233,20.677 25.18,25.18 0 0 1 6.989,17.507 C 4.688,15.36 2.25,12.174 2.25,8.25 2.25,5.322 4.714,3 7.688,3 A 5.5,5.5 0 0 1 12,5.052 5.5,5.5 0 0 1 16.313,3 c 2.973,0 5.437,2.322 5.437,5.25 0,3.925 -2.438,7.111 -4.739,9.256 a 25.175,25.175 0 0 1 -4.244,3.17 15.247,15.247 0 0 1 -0.383,0.219 l -0.022,0.012 -0.007,0.004 -0.003,10e-4 a 0.752,0.752 0 0 1 -0.704,0 l -0.003,-10e-4 z"
       id="path1-9"
       style="fill:#ffffff;fill-opacity:1" /></g></svg>
